<?xml version="1.0" encoding="utf-8"?>
<!-- Svg Vector Icons : http://www.onlinewebfonts.com/icon -->
<!DOCTYPE svg PUBLIC "-//W3C//DTD SVG 1.1//EN" "http://www.w3.org/Graphics/SVG/1.1/DTD/svg11.dtd">
<svg version="1.1" xmlns="http://www.w3.org/2000/svg" xmlns:xlink="http://www.w3.org/1999/xlink" x="0px" y="0px" viewBox="0 0 1000 1000" enable-background="new 0 0 1000 1000" xml:space="preserve">
<metadata> Svg Vector Icons : http://www.onlinewebfonts.com/icon </metadata>
<g><g transform="translate(0.000000,511.000000) scale(0.100000,-0.100000)"><style type="text/css">
	.st0{fill:#7a96d9;}</style><path d="M2540.6,4972.7c-370.8-88.6-674-366.2-816.3-746.3c-51.3-137.6-53.6-144.6-60.6-1844.8l-7-1709.6h457.1h454.8v1644.3v1644.3l67.6,74.6l67.6,77l1203.5,7l1203.5,7V3006.6c0-1044.9,2.3-1126.5,46.6-1264.1c107.3-354.5,382.5-627.4,746.3-748.7c144.6-49,198.2-51.3,1266.4-60.6l1112.5-9.3v-2306.6c0-2535.2,7-2404.6-139.9-2481.6c-60.6-30.3-382.5-35-2754.4-30.3l-2684.5,7l-67.6,77c-56,60.7-67.6,95.6-67.6,191.3v116.6h-457.1H1652l16.3-184.3c44.3-529.4,375.5-935.2,870-1063.5c202.9-53.6,5550.8-51.3,5756.1,0c417.5,107.3,730,417.5,839.6,830.3c30.3,107.3,35,599.4,35,3122.9v2997L7762.6,3606L6358.6,5010l-1842.5-2.3C3028.1,5005.3,2647.9,5000.7,2540.6,4972.7z M7216.9,1842.8c-795.3-4.7-1058.9,2.3-1098.5,23.3c-119,63-121.3,77-121.3,1201.1v1044.9l1131.2-1131.2l1131.2-1131.2L7216.9,1842.8z"/><path d="M1379.1,91.2c-205.2-63-405.8-242.5-496.8-440.8c-49-107.3-51.3-135.3-51.3-1065.9v-956.2l65.3-133c81.6-165.6,256.6-326.5,426.8-389.5c125.9-49,163.3-49,2726.4-49c2563.2,0,2600.5,0,2726.5,49c170.3,63,345.2,223.9,426.8,389.5l65.3,133v956.2c0,930.6-2.3,958.6-51.3,1065.9c-67.6,146.9-223.9,312.5-368.5,387.2l-116.6,63l-2647.2,4.7C2629.2,107.5,1411.8,100.5,1379.1,91.2z M2447.3-851c109.6-51.3,200.6-167.9,226.2-289.2l16.3-77h-142.3c-121.3,0-142.3,7-142.3,42c0,23.3-25.7,67.6-58.3,98c-79.3,74.6-305.5,81.6-380.2,16.3c-139.9-128.3-56-221.6,263.5-293.9c375.5-86.3,482.8-174.9,482.8-396.5c0-279.9-237.9-445.5-599.4-417.5c-270.5,23.3-445.5,151.6-471.1,345.2l-14,93.3h132.9c102.6,0,130.6-7,130.6-37.3c0-18.7,30.3-67.6,67.6-105c60.6-60.7,84-67.6,219.2-67.6c181.9,0,272.9,56,272.9,163.3c0,86.3-65.3,123.6-340.5,186.6c-258.9,60.6-354.5,107.3-408.1,195.9c-60.6,97.9-58.3,303.2,2.3,403.5C1826.9-790.4,2176.8-722.8,2447.3-851z M4854.2-799.7c151.6-35,275.2-123.6,328.8-237.9c72.3-160.9,63-179.6-86.3-179.6c-121.3,0-130.6,4.7-151.6,67.7c-32.6,95.6-158.6,151.6-296.2,132.9c-128.3-16.3-191.3-70-191.3-156.2c0-88.6,56-121.3,326.5-184.3c352.2-84,443.1-149.3,478.1-331.2c35-188.9-107.3-403.5-307.9-459.5c-125.9-35-328.8-32.6-464.1,9.3c-170.2,49-312.5,214.6-312.5,363.8c0,37.3,16.3,44.3,128.3,44.3c116.6,0,128.3-4.7,142.3-58.3c25.7-100.3,114.3-151.6,270.6-151.6c198.2,0,275.2,46.6,275.2,167.9c0,86.3-60.6,121.3-321.9,179.6c-368.5,84-471.1,170.3-471.1,403.5c0,191.2,111.9,326.5,319.5,382.5C4658.3-769.4,4721.3-769.4,4854.2-799.7z M6181.3-834.7c149.3-63,258.9-200.6,258.9-324.2c0-56-7-58.3-123.6-58.3c-114.3,0-123.6,4.7-149.3,70c-83.9,219.2-555.1,153.9-485.1-67.6c14-49,123.6-97.9,314.9-139.9c235.5-53.6,342.9-95.6,410.5-167.9c60.6-63,67.6-86.3,67.6-226.2c0-126-9.3-170.2-53.6-233.2c-79.3-109.6-219.2-172.6-412.8-186.6c-335.9-21-552.8,109.6-606.4,363.8l-16.3,74.6h139.9c135.3,0,139.9-2.3,151.6-70c18.7-93.3,119-139.9,296.2-139.9c118.9,0,151.6,9.3,198.2,58.3c116.6,114.3,39.6,221.6-193.6,270.5c-394.2,81.6-520.1,158.6-552.8,345.2c-35,205.2,114.3,424.5,307.9,457.1c49,9.3,100.3,18.7,112,25.6C5887.4-767.1,6097.3-799.7,6181.3-834.7z M3835-1469.1c123.6-354.5,226.2-655.4,226.2-664.7c0-9.3-65.3-16.3-144.6-11.7l-142.3,7l-46.6,135.3l-44.3,132.9h-240.2H3203l-44.3-132.9l-46.6-135.3l-142.3-7c-79.3-4.7-144.6-2.3-144.6,2.3c0,11.7,419.8,1191.8,454.8,1282.8c14,32.7,46.6,39.6,172.6,39.6h153.9L3835-1469.1z"/><path d="M3354.6-1389.8l-84-247.2h172.6h172.6l-81.6,237.9c-42,128.3-84,240.2-88.6,244.9C3440.9-1149.6,3398.9-1254.5,3354.6-1389.8z"/></g></g>
</svg>